<svg xmlns="http://www.w3.org/2000/svg" viewBox="0 0 1024 1024" width="1024" height="1024">
  <defs>
    <linearGradient id="bg" x1="0.5" y1="0" x2="0.5" y2="1">
      <stop offset="0" stop-color="#FF8A3D"/>
      <stop offset="0.42" stop-color="#F4B25C"/>
      <stop offset="0.62" stop-color="#9CC772"/>
      <stop offset="1" stop-color="#3D8C56"/>
    </linearGradient>
    <linearGradient id="window" x1="0" y1="0" x2="0" y2="1">
      <stop offset="0" stop-color="#2D4058"/>
      <stop offset="1" stop-color="#1B2939"/>
    </linearGradient>
    <linearGradient id="search" x1="0" y1="0" x2="0" y2="1">
      <stop offset="0" stop-color="#FFF6DD"/>
      <stop offset="1" stop-color="#F4DAA8"/>
    </linearGradient>
    <linearGradient id="sparkle" x1="0" y1="0" x2="1" y2="1">
      <stop offset="0" stop-color="#FFB347"/>
      <stop offset="1" stop-color="#E26F1A"/>
    </linearGradient>
    <filter id="ds" x="-20%" y="-20%" width="140%" height="140%">
      <feGaussianBlur in="SourceAlpha" stdDeviation="12"/>
      <feOffset dx="0" dy="10"/>
      <feComponentTransfer><feFuncA type="linear" slope="0.4"/></feComponentTransfer>
      <feMerge><feMergeNode/><feMergeNode in="SourceGraphic"/></feMerge>
    </filter>
    <clipPath id="appClip">
      <rect x="32" y="32" width="960" height="960" rx="220"/>
    </clipPath>
  </defs>

  <rect x="32" y="32" width="960" height="960" rx="220" fill="url(#bg)"/>

  <g clip-path="url(#appClip)">
    <path d="M32 720 Q 256 660 512 700 T 992 700 L 992 992 L 32 992 Z" fill="#2E7244" opacity="0.32"/>
  </g>

  <g filter="url(#ds)">
    <rect x="148" y="208" width="728" height="660" rx="72" fill="url(#window)"/>
  </g>

  <circle cx="208" cy="266" r="18" fill="#FF6058"/>
  <circle cx="260" cy="266" r="18" fill="#FFBD2E"/>
  <circle cx="312" cy="266" r="18" fill="#28C941"/>

  <rect x="208" y="412" width="608" height="148" rx="74" fill="url(#search)"/>

  <g transform="translate(298, 486)">
    <path d="M 0 -42 L 11 -11 L 42 0 L 11 11 L 0 42 L -11 11 L -42 0 L -11 -11 Z" fill="url(#sparkle)"/>
  </g>
  <path d="M 358 432 L 362 446 L 376 450 L 362 454 L 358 468 L 354 454 L 340 450 L 354 446 Z" fill="#FFD685"/>

  <rect x="372" y="478" width="280" height="20" rx="10" fill="#A07A4F" opacity="0.45"/>

  <circle cx="752" cy="486" r="42" fill="url(#sparkle)"/>
  <path d="M 752 510 L 752 462" stroke="#FFF6DD" stroke-width="10" stroke-linecap="round"/>
  <path d="M 736 478 L 752 462 L 768 478" stroke="#FFF6DD" stroke-width="10" stroke-linecap="round" stroke-linejoin="round" fill="none"/>

  <rect x="208" y="640" width="138" height="138" rx="32" fill="#34C759"/>
  <rect x="364" y="640" width="138" height="138" rx="32" fill="#5AC8FA"/>
  <rect x="520" y="640" width="138" height="138" rx="32" fill="#FF9F0A"/>
  <rect x="676" y="640" width="138" height="138" rx="32" fill="#BF5AF2"/>
</svg>
